<svg fill="none" height="13" viewBox="0 0 13 13" width="13" xmlns="http://www.w3.org/2000/svg"><g fill="#fff"><path d="m6.16082.0419922c-3.31242 0-5.994316 2.6882878-5.994316 5.9999978 0 3.31172 2.681896 6.00001 5.994316 6.00001 3.3174 0 6.00568-2.68829 6.00568-6.00001 0-3.31171-2.68828-5.9999978-6.00568-5.9999978zm.00568 10.8000078c-.63039.0002-1.25465-.1238-1.8371-.365-.58244-.2412-1.11167-.59472-1.55742-1.04048-.44576-.44576-.79932-.97498-1.04048-1.55743-.24115-.58244-.36518-1.2067-.365-1.8371-.00018-.6304.12385-1.25465.365-1.8371.24116-.58245.59472-1.11167 1.04048-1.55743.44575-.44575.97498-.79931 1.55742-1.04047.58245-.24116 1.20671-.36518 1.8371-.365.6304-.00018 1.25466.12384 1.8371.365.58245.24116 1.11167.59472 1.55743 1.04047.44577.44576.79927.97498 1.04047 1.55743s.3652 1.2067.365 1.8371c.0002.6304-.1238 1.25466-.365 1.8371-.2412.58245-.5947 1.11167-1.04047 1.55743-.44576.44576-.97498.79928-1.55743 1.04048-.58244.2412-1.2067.3652-1.8371.365z"/><path d="m6.46605 3.04199h-.89964v3.6l3.14982 1.89018.45018-.73846-2.70036-1.60189z"/></g></svg>