<svg width="16" height="16" viewBox="0 0 16 16" fill="none" xmlns="http://www.w3.org/2000/svg">
<path fill-rule="evenodd" clip-rule="evenodd" d="M8.30958 3.27832C13.6533 3.27832 15.6846 7.84082 15.7471 8.02832C15.9033 8.34082 15.7471 8.71582 15.4346 8.84082C15.415 8.84734 15.3968 8.85387 15.3794 8.8601C15.3134 8.88375 15.2588 8.90332 15.1846 8.90332C14.9658 8.90332 14.7158 8.77832 14.6221 8.52832C14.6172 8.52013 14.6078 8.50181 14.5938 8.47445C14.3405 7.97974 12.5737 4.52832 8.30958 4.52832C3.77833 4.52832 2.02833 8.49707 2.02833 8.49707C1.90333 8.84082 1.52833 8.96582 1.21583 8.84082C0.872082 8.71582 0.747082 8.34082 0.872082 8.02832C0.934582 7.84082 2.96583 3.27832 8.30958 3.27832ZM4.55958 9.52832C4.55958 7.46582 6.24708 5.77832 8.30958 5.77832C10.3721 5.77832 12.0596 7.46582 12.0596 9.52832C12.0596 11.5908 10.3721 13.2783 8.30958 13.2783C6.24708 13.2783 4.55958 11.5908 4.55958 9.52832ZM5.80958 8.27832C5.80958 8.96582 6.37208 9.52832 7.05958 9.52832C7.74708 9.52832 8.30958 8.96582 8.30958 8.27832C8.30958 7.59082 7.74708 7.02832 7.05958 7.02832C6.37208 7.02832 5.80958 7.59082 5.80958 8.27832Z" fill="#0D75B0"/>
</svg>
