<svg fill="none" height="22" viewBox="0 0 22 22" width="22" xmlns="http://www.w3.org/2000/svg"><path clip-rule="evenodd" d="m7.30489 5.32845c-.71201 1.04683-.93318 2.34671-.93318 3.23381 0 .24506.07984.61976.26259 1.1136.17757.47984.42972 1.01304.72016 1.55504.47321.8831 1.02635 1.7495 1.46589 2.3845h4.77375c.4396-.635.9927-1.5014 1.4659-2.3845.2905-.542.5426-1.0752.7202-1.55504.1827-.49384.2626-.86854.2626-1.1136 0-.8871-.2212-2.18698-.9332-3.23381-.6729-.98931-1.8217-1.81932-3.9024-1.81932-2.08065 0-3.22942.83001-3.90231 1.81932zm-1.62458-.99724c1.01954-1.49896 2.77208-2.65958 5.52689-2.65958 2.7549 0 4.5074 1.16062 5.527 2.65958.9804 1.44146 1.2428 3.12752 1.2428 4.23105 0 .55118-.162 1.15521-.3721 1.72304-.2153.5818-.5072 1.1932-.8212 1.7792-.6277 1.1715-1.3767 2.3019-1.88 2.9926l-.7951 1.1211h-2.9014-2.90128l-.79515-1.1211c-.5033-.6907-1.25229-1.8211-1.88003-2.9926-.314-.586-.60585-1.1974-.82117-1.7792-.21013-.56783-.37207-1.17186-.37207-1.72304 0-1.10353.26239-2.78959 1.24281-4.23105zm2.62561 12.81409.48355.9671h4.83553l.4836-.9671zm.96711 1.9342.96707.9671h1.9342l.9671-.9671zm3.67497-14.65161-4.64208 4.78717h2.90128l-1.45062 3.48154 4.35202-5.00473h-2.3211z" fill="#0d75b0" fill-rule="evenodd"/></svg>