<?xml version="1.0" encoding="UTF-8" standalone="no"?><!DOCTYPE svg PUBLIC "-//W3C//DTD SVG 1.1//EN" "http://www.w3.org/Graphics/SVG/1.1/DTD/svg11.dtd"><svg width="100%" height="100%" viewBox="0 0 70 32" version="1.1" xmlns="http://www.w3.org/2000/svg" xmlns:xlink="http://www.w3.org/1999/xlink" xml:space="preserve" xmlns:serif="http://www.serif.com/" style="fill-rule:evenodd;clip-rule:evenodd;stroke-linejoin:round;stroke-miterlimit:2;"><path d="M0,31.27l5.222,0l0,-13.554c0,-3.824 3.099,-6.923 6.924,-6.923c3.823,-0 6.922,3.099 6.922,6.923l0,13.554l5.047,-0l0,-13.611c0,-3.792 3.073,-6.866 6.864,-6.866c3.792,-0 6.864,3.074 6.864,6.866l0,13.611l5.223,-0l0,-13.905c0,-5.859 -4.475,-11.463 -11.751,-11.463c-7.273,-0 -9.782,5.361 -9.782,5.361c0,-0 -2.582,-5.361 -9.226,-5.361c-6.931,-0 -9.681,4.51 -9.681,4.51l-2.626,-2.493l0,23.351Z" style="fill:#044d66;fill-rule:nonzero;"/><path d="M62.017,7.199c-1.343,-0.747 -3.051,-1.297 -5.178,-1.297c-6.931,-0 -9.68,4.51 -9.68,4.51l-2.626,-2.493l0,23.351l5.222,-0l0,-13.552c0,-3.826 3.099,-6.924 6.922,-6.924c2.15,-0 4.07,0.978 5.34,2.515l-0,-6.11Z" style="fill:#bbd437;fill-rule:nonzero;"/><path d="M69.057,31.27c-1.467,0 -5.573,-3.989 -5.573,-9.681l0,-14.082c0,0 5.573,3.139 5.573,7.511l0,16.252Z" style="fill:#044d66;fill-rule:nonzero;"/><path d="M69.816,3.167c0,1.749 -1.417,3.167 -3.166,3.167c-1.749,-0 -3.167,-1.418 -3.167,-3.167c0,-1.748 1.418,-3.167 3.167,-3.167c1.749,0 3.166,1.419 3.166,3.167" style="fill:#bbd437;fill-rule:nonzero;"/></svg>