<svg clip-rule="evenodd" fill-rule="evenodd" stroke-linejoin="round" stroke-miterlimit="2" viewBox="0 0 70 32" xmlns="http://www.w3.org/2000/svg"><g fill-rule="nonzero"><path d="m0 31.27h5.222v-13.554c0-3.824 3.099-6.923 6.924-6.923 3.823 0 6.922 3.099 6.922 6.923v13.554h5.047v-13.611c0-3.792 3.073-6.866 6.864-6.866 3.792 0 6.864 3.074 6.864 6.866v13.611h5.223v-13.905c0-5.859-4.475-11.463-11.751-11.463-7.273 0-9.782 5.361-9.782 5.361s-2.582-5.361-9.226-5.361c-6.931 0-9.681 4.51-9.681 4.51l-2.626-2.493v23.351z" fill="#044d66"/><path d="m62.017 7.199c-1.343-.747-3.051-1.297-5.178-1.297-6.931 0-9.68 4.51-9.68 4.51l-2.626-2.493v23.351h5.222v-13.552c0-3.826 3.099-6.924 6.922-6.924 2.15 0 4.07.978 5.34 2.515z" fill="#bbd437"/><path d="m69.057 31.27c-1.467 0-5.573-3.989-5.573-9.681v-14.082s5.573 3.139 5.573 7.511z" fill="#044d66"/><path d="m69.816 3.167c0 1.749-1.417 3.167-3.166 3.167s-3.167-1.418-3.167-3.167c0-1.748 1.418-3.167 3.167-3.167s3.166 1.419 3.166 3.167" fill="#bbd437"/></g></svg>