<svg fill="none" height="51" viewBox="0 0 50 51" width="50" xmlns="http://www.w3.org/2000/svg" xmlns:xlink="http://www.w3.org/1999/xlink"><clipPath id="a"><path d="m.11084.84729h49v50h-49z"/></clipPath><g clip-path="url(#a)" fill="#fff"><path d="m32.6926 24.8698-10.1747-7.5472c-.3734-.2762-.8691-.3178-1.2784-.1031-.4125.213-.6702.6456-.6702 1.1131v15.0893c0 .4726.2577.9035.6702 1.1165.1745.0898.3652.1347.5576.1347.2512 0 .5055-.0815.7208-.2429l10.1747-7.5405c.3212-.2412.5087-.6139.5087-1.0099.0016-.4027-.1908-.7737-.5087-1.01z"/><path d="m24.6117.85144c-13.5337 0-24.50086 11.19096-24.50086 25.00086 0 13.8048 10.96716 24.9925 24.50086 24.9925 13.5304 0 24.4991-11.1893 24.4991-24.9925.0017-13.8099-10.9687-25.00086-24.4991-25.00086zm0 45.82206c-11.2705 0-20.40815-9.3191-20.40815-20.8212 0-11.4972 9.13765-20.82795 20.40815-20.82795 11.2688 0 20.4048 9.32915 20.4048 20.82795.0016 11.5021-9.136 20.8212-20.4048 20.8212z"/></g></svg>