<svg fill="none" height="20" viewBox="0 0 43 20" width="43" xmlns="http://www.w3.org/2000/svg"><path d="m41.2888 3.91554c.945 0 1.7111-.7599 1.7111-1.69727 0-.93738-.7661-1.697274-1.7111-1.697274-.9451 0-1.7112.759894-1.7112 1.697274 0 .93737.7661 1.69727 1.7112 1.69727z" fill="#bcd538"/><path d="m39.5779 8.75588v-3.69314c.5862.39289 3.3905 2.13731 3.3905 4.98176l.0159 1.2101-.0159 8.2507c-.8397-.3929-1.3625-.8801-1.8062-1.4301 0 0-.0158-.0315-.0158-.0158-.0634-.0785-.1109-.1571-.1743-.2357-.301-.4086-.5545-.8643-.7605-1.3358-.0475-.0943-.0792-.1886-.1109-.2829s-.0792-.1886-.1109-.2829c-.0951-.2986-.1743-.5972-.2535-.9115-.1109-.5343-.1743-1.1-.1743-1.6815z" fill="#fff"/><path d="m35.1733 3.91553c-2.5033 0-4.563 1.05293-5.8939 2.7502l-.0158-.01571c-.4436-.56576-.9823-1.06865-1.5844-1.46154v14.33252h3.2163.0158v-8.1092c0-2.57733 1.6795-4.49462 4.2778-4.49462 1.521 0 2.7252.66005 3.454 1.7287v-3.88172c-.9982-.55004-2.1548-.84863-3.4698-.84863z" fill="#bcd538"/><path d="m26.776 11.5218v7.9835h-3.248v-8.0935c0-2.57733-1.6794-4.49462-4.2778-4.49462s-4.2778 1.91729-4.2778 4.49462v8.0935h-3.1846v-8.0935c0-2.57733-1.6795-4.49462-4.27785-4.49462-1.53685 0-2.74097.59719-3.48563 1.68155-.52285.75435-.80803 1.71297-.80803 2.76597v8.1406h-3.21629v-14.37969c.602063.40861 1.06153.89579 1.50516 1.46154l.04753.06286c1.33088-1.69727 3.4381-2.79735 5.94142-2.79735 1.31503 0 2.47162.33003 3.45389.88007 1.014.56575 1.8379 1.38296 2.4241 2.38875 0 0 .0159.01571.0159.03143 0-.01572.0158-.01572.0158-.03143 1.1408-1.98015 3.2005-3.23739 5.8622-3.23739 4.4204.03143 7.51 3.33168 7.51 7.63771z" fill="#fff"/></svg>